<?xml version="1.0" standalone="no"?>
<!DOCTYPE svg PUBLIC "-//W3C//DTD SVG 20010904//EN"
 "http://www.w3.org/TR/2001/REC-SVG-20010904/DTD/svg10.dtd">
<svg version="1.0" xmlns="http://www.w3.org/2000/svg"
 width="167.000000pt" height="167.000000pt" viewBox="0 0 167.000000 167.000000"
 preserveAspectRatio="xMidYMid meet">
<metadata>
Created by potrace 1.14, written by Peter Selinger 2001-2017
</metadata>
<g transform="translate(0.000000,167.000000) scale(0.100000,-0.100000)"
fill="#000000" stroke="none">
<path d="M114 1511 c-2 -2 -4 -278 -4 -612 l0 -607 188 0 c103 0 218 -1 255
-1 l68 -1 -2 -92 c-1 -51 -1 -101 0 -110 1 -16 35 -17 470 -17 l468 0 0 470 0
469 -21 1 c-11 0 -61 1 -111 2 l-90 2 -2 220 c-1 121 -2 234 -3 250 l0 30
-606 0 c-333 0 -608 -2 -610 -4z"/>
</g>
</svg>
